<svg width="284.91" height="274.02" xmlns="http://www.w3.org/2000/svg"><defs><style>.cls-1{clip-path:url(#clip-path)}.cls-2{clip-path:url(#clip-path-2)}</style><clipPath id="clip-path"><path id="svg_1" d="M142.47 63.06a192.77 192.77 0 0 1 79.48 16 62.68 62.68 0 0 0 4.72-9.79 230.11 230.11 0 0 0-84.2-16.48 229.71 229.71 0 0 0-84.23 16.49A82.87 82.87 0 0 0 63 79.07a193.17 193.17 0 0 1 79.48-16l-.01-.01zm.01 27.38l17.37-21.25s29.79.63 59.44 14.43c-7.6 11.46-22.67 17.1-22.67 17.1-1-10.11-8.11-12.57-30.58-12.57l-23.58 133.08-23.72-133.1c-22.32 0-29.39 2.49-30.44 12.58 0 0-15.06-5.58-22.67-17.06 29.67-13.8 59.47-14.44 59.47-14.44l17.37 21.2.01.03z"/></clipPath><clipPath id="clip-path-2"><path id="svg_2" d="M-1755.94-3744.01h4211.18V467.17h-4211.18z"/></clipPath></defs><path fill="#fff" d="M142.47 63.06a192.77 192.77 0 0 1 79.48 16 62.68 62.68 0 0 0 4.72-9.79 230.11 230.11 0 0 0-84.2-16.48 229.71 229.71 0 0 0-84.23 16.49A82.87 82.87 0 0 0 63 79.07a193.17 193.17 0 0 1 79.48-16l-.01-.01zm.01 27.38l17.37-21.25s29.79.63 59.44 14.43c-7.6 11.46-22.67 17.1-22.67 17.1-1-10.11-8.11-12.57-30.58-12.57l-23.58 133.08-23.72-133.1c-22.32 0-29.39 2.49-30.44 12.58 0 0-15.06-5.58-22.67-17.06 29.67-13.8 59.47-14.44 59.47-14.44l17.37 21.2.01.03z" id="SVGID-5"/><path fill="#fff" id="svg_3" d="M142.47 63.06a192.77 192.77 0 0 1 79.48 16 62.68 62.68 0 0 0 4.72-9.79 230.11 230.11 0 0 0-84.2-16.48 229.71 229.71 0 0 0-84.23 16.49A82.87 82.87 0 0 0 63 79.07a193.17 193.17 0 0 1 79.48-16l-.01-.01zm.01 27.38l17.37-21.25s29.79.63 59.44 14.43c-7.6 11.46-22.67 17.1-22.67 17.1-1-10.11-8.11-12.57-30.58-12.57l-23.58 133.08-23.72-133.1c-22.32 0-29.39 2.49-30.44 12.58 0 0-15.06-5.58-22.67-17.06 29.67-13.8 59.47-14.44 59.47-14.44l17.37 21.2.01.03z"/><g id="svg_4" class="cls-1"><path fill="#fff" id="SVGID-6" d="M-1755.94-3744.01h4211.18V467.17h-4211.18z"/><path fill="#fff" id="svg_5" d="M-1755.94-3744.01h4211.18V467.17h-4211.18z"/><g id="svg_6" class="cls-2"><path fill="#fff" id="svg_7" d="M49.82 44.37h185.29v185.29H49.82z"/></g><path fill="#fff" d="M142.47 63.06a192.77 192.77 0 0 1 79.48 16 62.68 62.68 0 0 0 4.72-9.79 230.11 230.11 0 0 0-84.2-16.48 229.71 229.71 0 0 0-84.23 16.49A82.87 82.87 0 0 0 63 79.07a193.17 193.17 0 0 1 79.48-16l-.01-.01zm.01 27.38l17.37-21.25s29.79.63 59.44 14.43c-7.6 11.46-22.67 17.1-22.67 17.1-1-10.11-8.11-12.57-30.58-12.57l-23.58 133.08-23.72-133.1c-22.32 0-29.39 2.49-30.44 12.58 0 0-15.06-5.58-22.67-17.06 29.67-13.8 59.47-14.44 59.47-14.44l17.37 21.2.01.03z" id="SVGID-7"/><path fill="#fff" id="svg_8" d="M142.47 63.06a192.77 192.77 0 0 1 79.48 16 62.68 62.68 0 0 0 4.72-9.79 230.11 230.11 0 0 0-84.2-16.48 229.71 229.71 0 0 0-84.23 16.49A82.87 82.87 0 0 0 63 79.07a193.17 193.17 0 0 1 79.48-16l-.01-.01zm.01 27.38l17.37-21.25s29.79.63 59.44 14.43c-7.6 11.46-22.67 17.1-22.67 17.1-1-10.11-8.11-12.57-30.58-12.57l-23.58 133.08-23.72-133.1c-22.32 0-29.39 2.49-30.44 12.58 0 0-15.06-5.58-22.67-17.06 29.67-13.8 59.47-14.44 59.47-14.44l17.37 21.2.01.03z"/><g id="svg_9" class="cls-1"><path fill="#fff" id="SVGID-8" d="M-1755.94-3744.01h4211.18V467.17h-4211.18z"/><path fill="#fff" id="svg_10" d="M-1755.94-3744.01h4211.18V467.17h-4211.18z"/><g id="svg_11" class="cls-2"><path fill="#fff" id="svg_12" d="M49.82 44.37h185.29v185.29H49.82z"/></g></g></g></svg>
