<svg width="51.1" height="66" xmlns="http://www.w3.org/2000/svg"><path d="M18.86 29.77S12.1 11 9.89 4.2C4.72 5.55-.32 16.12 4.35 25.1c2.21 4.3 8.73 15 8.73 15l5.78-10.33zM32.26 29.77S39 11 41.24 4.2c5.16 1.35 10.2 11.93 5.53 20.9-2.21 4.18-8.73 15-8.73 15l-5.78-10.33zM9.15 37.88l-2.34-1.59-1.47-4.18H4.23l.49 5.41 6.89 4.05-2.46-3.69zM44.43 36.29l-3.07 1.35-2.46 3.69 7.62-3.81.62-5.41h-1.11l-1.6 4.18zM25.62 48.95l-6.76-1.72-.61 1.47 7.37 12.54L33 48.7l-.62-1.47-6.76 1.72zM30.66 29.52c-1.72-3.32-5-8.11-5-8.11s-3.32 4.79-5 8.11l5 8 5-8z" fill="#fff"/><path d="M36.2 40.47a68.07 68.07 0 0 1-4.67-8.36l-5.9 10.08-5.9-10.08C18 35.55 16.28 38.38 15 40.47l-4.5 3.68-.61 8.61H11l1.6-7.25 2.09-.86 10.94 1.48 10.94-1.48 2.09.86 1.6 7.25h1.11l-.61-8.61-4.56-3.68z" fill="#fff"/><path fill="#fff" d="M25.62 45.75v-2.58l-5.9-10.2-4.67 7.5-4.55 3.68-.61 8.61.86-.25 1.23-7.37 2.95-1.36 10.69 1.97zM25.62 21.41s3.93 5.78 5 8.11c-1-1.35-5-5.66-5-5.66v-2.45zM9.52 5.3L18 29.52l-2.09 3.94 1.11-4.3L9.03 6.53l.49-1.23zM41.73 5.3l-8.36 24.22.98-.36 7.87-22.63-.49-1.23z"/><path fill="#fff" d="M25.62 49.56v10.58l-6.76-11.31.49-1.11 6.27 1.84zM25.62 38.64V24.87l-5.04 5.65 5.04 8.12zM25.62 48.95l6.76-1.72-6.14 2.46-.62 10.45V48.95zM27.1 23.87v1.23l.86 1.1v-.86l-.86-1.47zM31.52 32.11c-.86 1.35-5.9 10.08-5.9 10.08v1l5.78-9.59 4.79 6.76a68.22 68.22 0 0 1-4.67-8.25z"/><path fill="#fff" d="M41.36 52.76l-.86-.25-1.35-7.25-2.59-1.23-10.94 1.72v.37l10.94-1.47 2.1.86 1.59 7.25h1.11z"/><path fill="#fff" d="M26.24 42.31l-.62 3.81v-2.95l.62-.86zM41.73 5.3s3.44.86 5.41 5.9c-3.07-4.43-4.92-4.79-4.92-4.79l-.49-1.11z"/><path d="M25.62 65.3L14.68 47l-1 .49-1.11 6.76H8.41L8.29 44l1.23-1.6-6.27-3.29-1-9.34h2.23c-.37-.74-1.11-2.58-2.34-5.16a18 18 0 0 1 .12-14.88c1.84-4.18 5.16-7.5 8.24-8.48l.25-.12.12.25c.49 1.35 7.5 21.15 8.85 24.83l5.9-8.11v1l-6 8.48-.25-.61c-.12-.25-7.75-22.13-8.85-25.08-2.83 1-5.9 4.3-7.62 8.11a16.84 16.84 0 0 0-.12 14.38C4.35 27.93 5.21 30 5.21 30l.25.49H3l.86 8.36 6.64 3.44-1.6 2 .1 9.33h3.1L13.21 47l1.72-.86.12.25 10.57 17.56v1.35z" fill="#fff"/><path d="M25.62 65.3v-1.47L36.2 46l1.72.86L39 53.5h3.1l.12-9.34-1.6-2 6.64-3.44.86-8.36h-2.46l.12-.37s.86-2.09 2.46-5.66A16.84 16.84 0 0 0 48.12 10c-1.72-3.84-4.79-7.16-7.62-8.14-1.11 3.07-8.85 25-8.85 25.08l-.25.61-5.9-8.35v-1l5.66 8C32.51 22.52 39.39 2.72 40 1.37l.25-.37.25.12c3.2 1 6.39 4.3 8.24 8.48a18 18 0 0 1 .12 14.88c-1.23 2.58-2 4.43-2.34 5.16h2.21l-.86 9.47-6.27 3.32L42.84 44l-.12 10.2h-4.19l-1.11-6.76-1-.49-10.8 18.35z" fill="#fff"/><path fill="#fff" d="M28.7 37.27v.74l-1.23 2.09-.13-.62 1.36-2.21z"/></svg>
