<?xml version="1.0" encoding="UTF-8" standalone="no"?>
<svg width="512px" height="521px" viewBox="0 0 512 521" version="1.1" xmlns="http://www.w3.org/2000/svg" xmlns:xlink="http://www.w3.org/1999/xlink">
    <!-- Generator: Sketch 48.1 (47250) - http://www.bohemiancoding.com/sketch -->
    <title>Desktop HD Copy</title>
    <desc>Created with Sketch.</desc>
    <defs></defs>
    <g id="Page-1" stroke="none" stroke-width="1" fill="none" fill-rule="evenodd">
        <g id="Desktop-HD-Copy" fill="#ffffff">
            <g id="Group" transform="translate(52.000000, 57.000000)">
                <path d="M316.93054,92.6746651 L316.129239,91.8717518 C244.287806,20.0319732 144.600744,-11.1188047 66.3392257,67.1426679 C-12.3237495,145.805597 18.8270467,243.083861 91.0699365,315.325096 L91.8728502,316.129622 C163.712671,387.967788 263.399733,419.118566 341.661251,340.857094 C420.322614,262.194164 389.17343,164.9159 316.93054,92.6746651 M64.417392,344.387977 L63.6112537,343.583452 C-13.218563,266.752068 -26.8971177,143.66127 58.3826407,58.3831742 C143.660787,-26.8965343 266.753268,-13.2195999 343.583085,63.6117842 L344.387611,64.4163097 C421.220652,141.249306 434.895982,264.338491 349.616224,349.618199 C264.33969,434.896296 141.248821,421.219361 64.417392,344.387977" id="Fill-1"></path>
                <path d="M296.362172,294.671432 L297.015707,294.016291 C355.65076,235.382749 381.074376,154.019979 317.199807,90.1437018 C252.997668,25.943065 173.602056,51.3667227 114.639433,110.327835 L113.982687,110.984582 C55.3492405,169.618123 29.9256238,250.980893 93.8017984,314.855565 C158.003937,379.057808 237.39955,353.632544 296.362172,294.671432 M90.9195024,88.5748953 L91.5762484,87.9181482 C154.283447,25.2108482 254.74792,14.0477541 324.350149,83.6500953 C393.952378,153.252436 382.789302,253.717072 320.080498,316.424372 L319.423752,317.082724 C256.716553,379.790024 156.253685,390.951513 86.6498506,321.349172 C17.0476217,251.74683 28.2106978,151.283801 90.9195024,88.5748953" id="Fill-3"></path>
                <path d="M129.936211,277.99013 L130.472427,278.526345 C178.543445,326.595765 245.245142,347.438944 297.610717,295.073356 C350.245204,242.438855 329.402031,177.349009 281.065321,129.010676 L280.527495,128.47285 C232.458087,80.4034298 165.75478,59.5618613 113.390815,111.927449 C60.7547176,164.56195 81.5978909,229.651797 129.936211,277.99013 M298.897313,109.563591 L299.436749,110.103027 C350.84422,161.512122 359.996924,243.873595 302.937449,300.934695 C245.873143,357.997405 163.511691,348.844699 112.102609,297.437215 L111.564783,296.897778 C60.1540915,245.487073 51.002998,163.1256 108.065694,106.0645 C165.126779,49.0034 247.488231,58.1544959 298.897313,109.563591" id="Fill-5"></path>
            </g>
        </g>
    </g>
</svg>
